<svg xmlns="http://www.w3.org/2000/svg" viewBox="0 0 1113.16 986.69"><defs><style>.cls-1{fill:none;stroke:#99b5cb;stroke-miterlimit:10;stroke-width:0;}.cls-2{fill:#326a97;}.cls-3{fill:#ffd43b;}.cls-4{fill:#fff;}</style></defs><g id="Layer_2" data-name="Layer 2"><g id="Layer_1-2" data-name="Layer 1"><path class="cls-1" d="M766.33,96.4C701.31,57.34,588.2-25.52,513.69,7.67q-105,46.4-184.91,107.47A27.68,27.68,0,0,0,331.49,161L547.78,287.86a18.58,18.58,0,0,0,19.87,0L781,163.68a29.76,29.76,0,0,0,14.9-25.74c-.23-16-9.93-29.8-29.58-41.54"/><path class="cls-1" d="M794.78,834,580.3,707.8a41.7,41.7,0,0,0-42-.23l-205,119c-20.1,11.74-20.77,40.41-1.13,52.83Q405,925.79,481.86,969c102.5,57.35,238.64-37.7,315.63-102a20.34,20.34,0,0,0-2.71-33"/><path class="cls-2" d="M766.33,96.4c19.65,11.74,29.35,25.52,29.58,41.54A29.76,29.76,0,0,1,781,163.68L567.65,287.86a18.58,18.58,0,0,1-19.87,0L331.49,161a27.68,27.68,0,0,1-2.71-45.83q79.94-61,184.91-107.47C588.2-25.52,701.31,57.34,766.33,96.4Z"/><path class="cls-3" d="M797.08,834a20.35,20.35,0,0,1,2.71,33c-77,64.35-213.13,159.4-315.64,102q-76.87-43.35-149.68-89.63c-19.65-12.42-19-41.09,1.13-52.83l205-119a41.68,41.68,0,0,1,42,.23L797.08,834Z"/><path class="cls-2" d="M1065.81,621.47c17.84.46,55.32,4.52,45.83-28.44q-17.94-62.32-37.25-125.53c-.9-3.62.23-5.65,3.84-6.55,17.61-5,24.83-15.13,21.45-30q-5.76-24.39-35.67-111.53a8.21,8.21,0,0,1,1.8-8.35c7.68-8.36,11.74-15.58,11.29-21.91-5.87-87.82-98.66-110.17-171.36-105.21h-.68c-8.58.23-85.12,1.36-141.56,14.68v42.9c5.65-1.13,11.74-2.26,17.84-3.39l.22-.23c5.19-.9,10.39-1.8,15.81-2.71,86-14.67,202.29-23.25,235.93,39.51a7.18,7.18,0,0,1-.9,8.13C994.69,323.9,948,344,892,343.55c-14.45-.23-22.81,16.7-13.55,28.22,30.48,38.38,18.29,76.53-6.1,109.27a269.72,269.72,0,0,1-25.73,29.8l-4.75,4.75a17.17,17.17,0,0,0-3.16,20.77L921.32,693.5A20.91,20.91,0,0,0,954.73,698l50.12-53.73A13.66,13.66,0,0,1,1026.3,661C996.05,708.4,1004,747.46,1050,777.48c9.48,6.1,9.93,12.87,1.81,20.1-48.55,43.8-122.6-5-158.5-41.32a11.26,11.26,0,0,0-8.13-3.16c-23,1.58-57.57.68-89-7.68a152.35,152.35,0,0,1-32.74-12.19V780a205.1,205.1,0,0,0,33,9.93c22.81,5,46.74,6.77,70.67,6.32a11.61,11.61,0,0,1,7.68,2.49L920.41,833c.23,0,.45.23.68.46,16.26,12,46.74,18.28,60.51,20.77h2a30.2,30.2,0,0,0,4.74.9c49.9,7,135.47-26.64,107.47-88.95-9.93-21.9-38.38-26.87-44.48-49-5.42-18.28,16.71-39.51,27.77-52.38a7.1,7.1,0,0,0,.68-8.35L1062.2,627.8C1060.39,625.09,1062.65,621.47,1065.81,621.47ZM1059,580.83c-60.73-12.19-75.64,23.94-110.86,61-2.25,2.26-4.51,2.26-6.09-.9L887,535a6.88,6.88,0,0,1,1.58-8.12c39.28-36.81,55.77-82,49.67-135.92-.68-5.19,1.58-8.13,6.77-9a185.34,185.34,0,0,0,77-35,5.29,5.29,0,0,1,8.13,2.49l22.13,72c.67,2.71,0,4.51-2.71,5.64l-58,26.87a15.85,15.85,0,0,0-7.67,7.68c-13.32,32.73,26.64,32.73,45.38,24.38a5.44,5.44,0,0,1,7.45,3.39l26,87.14A3.24,3.24,0,0,1,1059,580.83Z"/><path class="cls-2" d="M850.68,472.24,665.41,598.48,763.5,733.23V780L589,597.32,754.37,473.6,580.62,368.38,763.5,198.6v42.9c5.65-1.13,11.74-2.26,17.84-3.39L666,365.67Z"/><path class="cls-2" d="M781.56,237.88l-.22.23c-6.1,1.13-12.19,2.26-17.84,3.39V198.6Z"/><polygon class="cls-2" points="777.5 770.94 763.5 779.97 763.5 733.23 777.5 770.94"/><path class="cls-2" d="M315.79,241c5.42.91,10.84,1.81,15.8,2.71l.23.23c6.32,1.13,12.19,2.26,17.84,3.39V204.7c-56.22-13.55-133-14.68-141.34-14.91h-.9C135,184.83,41.93,207.4,36.28,295c-.45,6.33,3.39,13.55,11.06,21.9a7.79,7.79,0,0,1,1.81,8.36C29.28,383.28,17.32,420.54,13.7,437c-3.38,14.9,3.62,24.83,21.23,29.8,3.61.9,5,3.16,3.84,6.55-12.87,42.22-25.07,84-37.26,125.75-9.48,33,28,28.9,45.83,28.45A4.08,4.08,0,0,1,51,633.89L33.35,662.34a7.12,7.12,0,0,0,.67,8.35c11.29,13.1,33.42,34.1,28,52.38-6.1,22.13-34.77,27.32-44.7,49C-10.68,834.38,75.12,868,125,861c1.58-.23,3.16-.45,4.52-.68a2.91,2.91,0,0,1,1.35-.22h.68c14-2.49,44.48-8.81,60.51-20.77.22-.23.45-.23.67-.45l45.61-34.32a12,12,0,0,1,7.68-2.49c23.93.45,47.86-1.13,70.89-6.32a196.1,196.1,0,0,0,32.74-9.93V739.1a150.48,150.48,0,0,1-32.52,12.19c-31.38,8.36-66.15,9.26-88.95,7.68a11.83,11.83,0,0,0-8.13,3.16c-36.12,36.35-110.18,85.12-158.49,41.54-8.13-7.45-7.68-14.22,1.58-20.32,46.06-30,54.19-68.86,23.93-116.5a13.57,13.57,0,0,1,21.22-16.7l50.35,53.73c9.48,10.16,26.64,7.9,33.19-4.51l82.63-156.92a17.1,17.1,0,0,0-3.16-20.77C232,482.4,193,430.7,235,377.64c9.26-11.29.91-28.45-13.77-28.22-55.76.67-102.73-19.65-140.2-60.74a7.14,7.14,0,0,1-1.13-8.13C113.5,217.79,230,226.37,315.79,241ZM83.24,355.51a5.07,5.07,0,0,1,7.9-2.71,186.24,186.24,0,0,0,77.22,35c5.19.9,7.45,3.84,6.77,9.26-6.09,53.73,10.16,98.88,49.67,135.69a7.12,7.12,0,0,1,1.36,8.35L171.3,646.76c-1.81,3.16-3.84,3.39-6.1.9-35.22-36.8-50.35-73.15-110.86-61a3.36,3.36,0,0,1-3.83-4.29L76.7,495.27a5.43,5.43,0,0,1,7.45-3.39c18.51,8.35,58.7,8.58,45.15-24.16a14.55,14.55,0,0,0-7.45-7.67L63.6,433c-2.48-1.13-3.16-2.93-2.48-5.64Z"/><path class="cls-2" d="M363.22,481.64,556.69,597.32l-207,188.52V739.1L469.09,612.44,272,487.59,471.58,365.67,331.82,244c6.32,1.13,12.19,2.26,17.84,3.39V204.7L556.92,368.38Z"/><path class="cls-2" d="M349.66,204.7v42.67c-5.65-1.13-11.52-2.26-17.84-3.39l-.23-.23Z"/><polygon class="cls-2" points="349.66 739.1 349.66 785.84 335.66 776.81 349.66 739.1"/><circle class="cls-4" cx="563.1" cy="60.31" r="33.02"/><circle class="cls-4" cx="563.1" cy="913.74" r="33.02"/></g></g></svg>